<?xml version="1.0" encoding="utf-8"?>
<!-- Generator: Adobe Illustrator 25.2.1, SVG Export Plug-In . SVG Version: 6.00 Build 0)  -->
<svg version="1.1" id="Calque_1" xmlns="http://www.w3.org/2000/svg" xmlns:xlink="http://www.w3.org/1999/xlink" x="0px" y="0px"
	 viewBox="0 0 123 131.9" style="enable-background:new 0 0 123 131.9;" xml:space="preserve">
<style type="text/css">
	.st0{opacity:0.97;}
	.st1{fill:#FFFFFF;}
</style>
<g class="st0">
	<circle class="st1" cx="84.9" cy="92" r="12.4"/>
	<circle class="st1" cx="37.6" cy="92" r="12.4"/>
	<g>
		<path class="st1" d="M62.3,127.6c-8.3,0-15-6.7-15-15c0-1.5,1.2-2.6,2.6-2.6c1.5,0,2.6,1.2,2.6,2.6c0,5.4,4.4,9.7,9.7,9.7
			s9.7-4.4,9.7-9.7c0-1.5,1.2-2.6,2.6-2.6s2.6,1.2,2.6,2.6C77.3,120.9,70.6,127.6,62.3,127.6z"/>
	</g>
	<path class="st1" d="M34.4,74.2c-0.3,0.1-0.7,0.1-1,0.1c-1.8,0-3.5-1.2-4-3l-3.5-13.3l-0.6-2.2l-1.9-7.2l-1.3-5L18,28.3
		c-1.6-5.9-1.8-11.9-0.8-17.8l0.3-1.9c0.4-2.2,2.5-3.7,4.7-3.4c2.2,0.4,3.7,2.5,3.4,4.7l-0.3,1.9c-0.8,4.8-0.6,9.7,0.7,14.4
		l4.3,16.3l2.4,8.9l4.7,17.8C37.9,71.4,36.6,73.7,34.4,74.2z"/>
	<path class="st1" d="M25.9,58.1L13.9,47.3c-5.7-5-8.8-10.6-9-16.6l-0.2-4.5C4.6,24,6.4,22.1,8.6,22c2.3,0,4.2,1.7,4.2,3.9l0.2,4.5
		c0.1,3.6,2.2,7.2,6.2,10.7l2.8,2.5l1.3,5l1.9,7.2L25.9,58.1z"/>
	<path class="st1" d="M45.6,31.5l-0.5,5.1c-0.3,2.6-1.5,5.1-3.5,6.9l-8.9,8l-2.4-8.9l5.8-5.2c0.5-0.4,0.8-1,0.8-1.6l0.6-5.1
		c0.2-2.2,2.3-3.9,4.5-3.6C44.2,27.3,45.9,29.3,45.6,31.5z"/>
	<path class="st1" d="M104.7,26.7l-5.1,25.9L97.1,65l-1.3,6.4c-0.4,2-2.1,3.3-4,3.3c-0.3,0-0.5,0-0.8-0.1c-2.2-0.4-3.7-2.6-3.2-4.8
		l3.2-16.5l2-10l3.6-18.2c1-4.9,0.8-9.8-0.5-14.5l-0.5-1.9c-0.6-2.2,0.7-4.4,2.9-5c2.2-0.6,4.4,0.7,5,2.9l0.5,1.9
		C105.7,14.5,105.9,20.6,104.7,26.7z"/>
	<path class="st1" d="M93,43.3l-2,10L76.7,37.7c-2.9-2.9-5.3-6.5-7.1-10.4l-1.2-2.7c-0.9-2.1,0-4.5,2.1-5.4c2.1-0.9,4.5,0,5.4,2.1
		l1.2,2.7c1.4,3,3.2,5.7,5.6,8.1L93,43.3z"/>
	<path class="st1" d="M113.1,52.4L97.1,65l2.4-12.4L108,46c1.9-1.5,2.9-3.8,2.8-6.1l-0.4-10.4c-0.1-2.3,1.7-4.2,3.9-4.3
		c2.2-0.1,4.2,1.7,4.3,3.9l0.4,10.4C119.2,44.5,117,49.3,113.1,52.4z"/>
</g>
</svg>
