<?xml version="1.0" encoding="utf-8"?>
<!-- Generator: Adobe Illustrator 25.2.1, SVG Export Plug-In . SVG Version: 6.00 Build 0)  -->
<svg version="1.1" id="Calque_1" xmlns="http://www.w3.org/2000/svg" xmlns:xlink="http://www.w3.org/1999/xlink" x="0px" y="0px"
	 viewBox="0 0 123 131.9" style="enable-background:new 0 0 123 131.9;" xml:space="preserve">
<style type="text/css">
	.st0{fill:#010202;}
</style>
<g>
	<circle class="st0" cx="84.9" cy="92" r="12.4"/>
	<circle class="st0" cx="37.6" cy="92" r="12.4"/>
	<path class="st0" d="M74.7,109.9c-1.5,0-2.6,1.2-2.6,2.6c0,5.4-4.4,9.7-9.7,9.7c-5.4,0-9.7-4.4-9.7-9.7c0-1.5-1.2-2.6-2.6-2.6
		c-1.5,0-2.6,1.2-2.6,2.6c0,8.3,6.7,15,15,15c8.3,0,15-6.7,15-15C77.3,111.1,76.2,109.9,74.7,109.9z"/>
	<path class="st0" d="M29.4,71.3c0.5,1.8,2.1,3,4,3c0.3,0,0.7,0,1-0.1c2.2-0.6,3.5-2.8,2.9-5l-4.7-17.8l8.9-8c2-1.8,3.2-4.2,3.5-6.9
		l0.5-5.1c0.2-2.2-1.4-4.3-3.6-4.5c-2.3-0.2-4.3,1.4-4.5,3.6l-0.6,5.1c-0.1,0.6-0.4,1.2-0.8,1.6l-5.8,5.2L26,26.2
		c-1.3-4.7-1.5-9.6-0.7-14.4l0.3-1.9c0.4-2.2-1.1-4.3-3.4-4.7c-2.2-0.4-4.3,1.1-4.7,3.4l-0.3,1.9c-1,6-0.7,12,0.8,17.8l4.1,15.3
		l-2.8-2.5c-4-3.5-6.1-7.1-6.2-10.7L12.9,26c-0.1-2.3-1.9-4-4.2-3.9c-2.3,0.1-4,2-3.9,4.3l0.2,4.5c0.2,6,3.3,11.5,9,16.6l12.1,10.8
		L29.4,71.3z"/>
	<path class="st0" d="M118.6,29.1c-0.1-2.3-2-4-4.3-3.9c-2.3,0.1-4,2-3.9,4.3l0.4,10.4c0.1,2.4-1,4.7-2.8,6.1l-8.4,6.7l5.1-25.9
		c1.2-6.1,1-12.2-0.6-18.2l-0.5-1.9c-0.6-2.2-2.8-3.5-5-2.9c-2.2,0.6-3.5,2.8-2.9,5l0.5,1.9c1.3,4.7,1.4,9.6,0.5,14.5L93,43.3
		L82.6,32c-2.3-2.4-4.2-5.1-5.6-8.1l-1.2-2.7c-0.9-2.1-3.4-3-5.4-2.1c-2.1,0.9-3,3.4-2.1,5.4l1.2,2.7c1.8,3.9,4.2,7.5,7.1,10.4
		l14.4,15.6l-3.2,16.5c-0.4,2.2,1,4.4,3.2,4.8c0.3,0.1,0.5,0.1,0.8,0.1c1.9,0,3.6-1.4,4-3.3l1.3-6.4l15.9-12.6
		c3.9-3.1,6.1-7.9,5.9-12.9L118.6,29.1z"/>
</g>
</svg>
